<?xml version="1.0" encoding="UTF-8"?> <svg xmlns="http://www.w3.org/2000/svg" width="229" height="415" viewBox="0 0 229 415" fill="none"><path d="M150.585 78.5503H125.978V34.4068L114.447 24.4385L102.915 34.4068V78.5503H78.3082V101.691H18.4279V211.321C18.4279 261.665 51.2903 304.626 97.5335 321.52V332.867L114.447 370.233L131.36 332.867V321.52C177.603 304.63 210.465 261.665 210.465 211.321V101.691H150.585V78.5503ZM97.5335 296.537C87.561 291.914 78.3661 285.681 70.317 277.954C51.7287 260.096 41.4874 236.433 41.4874 211.321V185.662L97.5293 226.801V296.537H97.5335ZM97.5335 197.336L41.4915 156.197V124.827H78.3082V101.687H97.5335V197.336ZM187.402 211.321C187.402 236.433 177.164 260.096 158.572 277.954C150.527 285.681 141.332 291.914 131.356 296.537V226.801L187.397 185.662V211.321H187.402ZM187.402 124.831V156.201L131.36 197.336V101.691H150.585V124.831H187.402Z" fill="white"></path><path d="M169.061 83.1743V60.0339H144.454V25.9167L114.47 0L84.4868 25.9167V60.0339H59.8803V83.1743H0V211.318C0 239.658 8.91773 266.837 25.7853 289.911C39.497 308.665 57.8991 323.82 79.1056 333.843V336.872L114.47 415L149.835 336.872V333.843C171.042 323.82 189.444 308.665 203.156 289.911C220.023 266.837 228.941 239.658 228.941 211.318V83.1743H169.061ZM225.868 211.318C225.868 238.998 217.157 265.546 200.678 288.085C186.797 307.075 168.304 322.057 146.762 331.867V336.2L114.47 407.534L82.1829 336.2V331.867C60.6414 322.057 42.1483 307.071 28.2671 288.085C11.7841 265.546 3.07323 238.998 3.07323 211.318V86.2578H62.9536V63.1173H87.5601V27.3319L114.466 4.07115L141.377 27.3277V63.1132H165.983V86.2536H225.863V211.318H225.868Z" fill="white"></path></svg> 